<svg width="64" height="26" viewBox="0 0 64 26" fill="none" xmlns="http://www.w3.org/2000/svg">
<rect x="1.19995" y="0.5" width="62" height="25" rx="4.5" stroke="#E9EDF5"/>
<path d="M17.468 7.81818V18H15.9268V9.35938H15.8671L13.4311 10.9503V9.47869L15.9715 7.81818H17.468ZM24.187 18.169C23.4015 18.1657 22.7303 17.9586 22.1735 17.5476C21.6167 17.1366 21.1908 16.5384 20.8958 15.7528C20.6008 14.9673 20.4533 14.0211 20.4533 12.9141C20.4533 11.8104 20.6008 10.8674 20.8958 10.0852C21.1941 9.30303 21.6216 8.70644 22.1785 8.29545C22.7386 7.88447 23.4081 7.67898 24.187 7.67898C24.9659 7.67898 25.6337 7.88613 26.1905 8.30043C26.7474 8.71141 27.1733 9.308 27.4682 10.0902C27.7665 10.8691 27.9157 11.8104 27.9157 12.9141C27.9157 14.0244 27.7682 14.9723 27.4732 15.7578C27.1782 16.54 26.7523 17.1383 26.1955 17.5526C25.6387 17.9635 24.9692 18.169 24.187 18.169ZM24.187 16.8416C24.8764 16.8416 25.415 16.5052 25.8028 15.8324C26.1939 15.1596 26.3894 14.1868 26.3894 12.9141C26.3894 12.0689 26.2999 11.3546 26.1209 10.7713C25.9453 10.1847 25.6917 9.74053 25.3603 9.43892C25.0322 9.134 24.6411 8.98153 24.187 8.98153C23.5009 8.98153 22.9623 9.3196 22.5712 9.99574C22.1801 10.6719 21.9829 11.6446 21.9796 12.9141C21.9796 13.7625 22.0674 14.4801 22.2431 15.0668C22.4221 15.6501 22.6756 16.0926 23.0038 16.3942C23.3319 16.6925 23.7263 16.8416 24.187 16.8416Z" fill="#687182"/>
<path d="M41.7 11.5L44.7 14.5L47.7 11.5" stroke="#868FA0" stroke-width="1.5" stroke-linecap="round" stroke-linejoin="round"/>
</svg>
