<svg width="36" height="36" viewBox="0 0 36 36" fill="none" xmlns="http://www.w3.org/2000/svg">
<rect x="1" y="1" width="34" height="34" rx="17" fill="#F9FAFB"/>
<rect x="1" y="1" width="34" height="34" rx="17" stroke="white" stroke-width="2"/>
<path d="M10.9102 20.5341V14.7727H12.0565V20.5341H10.9102ZM8.60476 18.2244V17.0824H14.3661V18.2244H8.60476ZM19.631 13.2727V22H18.31V14.5938H18.2589L16.1708 15.9574V14.696L18.3484 13.2727H19.631ZM21.9918 22V21.0455L24.945 17.9858C25.2603 17.6534 25.5202 17.3622 25.7248 17.1122C25.9322 16.8594 26.087 16.6193 26.1893 16.392C26.2915 16.1648 26.3427 15.9233 26.3427 15.6676C26.3427 15.3778 26.2745 15.1278 26.1381 14.9176C26.0018 14.7045 25.8157 14.5412 25.5799 14.4276C25.3441 14.3111 25.0785 14.2528 24.783 14.2528C24.4705 14.2528 24.1978 14.3168 23.9648 14.4446C23.7319 14.5724 23.5529 14.7528 23.4279 14.9858C23.3029 15.2187 23.2404 15.4915 23.2404 15.804H21.9833C21.9833 15.2727 22.1055 14.8082 22.3498 14.4105C22.5941 14.0128 22.9293 13.7045 23.3555 13.4858C23.7816 13.2642 24.266 13.1534 24.8086 13.1534C25.3569 13.1534 25.8398 13.2628 26.2575 13.4815C26.6779 13.6974 27.006 13.9929 27.2418 14.3679C27.4776 14.7401 27.5955 15.1605 27.5955 15.6293C27.5955 15.9531 27.5344 16.2699 27.4123 16.5795C27.293 16.8892 27.0842 17.2344 26.7859 17.6151C26.4876 17.9929 26.0728 18.4517 25.5415 18.9915L23.8072 20.8068V20.8707H27.7362V22H21.9918Z" fill="#475467"/>
</svg>
