<svg width="36" height="36" viewBox="0 0 36 36" fill="none" xmlns="http://www.w3.org/2000/svg">
<rect x="1" y="1" width="34" height="34" rx="17" fill="#F9FAFB"/>
<rect x="1" y="1" width="34" height="34" rx="17" stroke="white" stroke-width="2"/>
<path d="M13.7051 20.5341V14.7727H14.8514V20.5341H13.7051ZM11.3997 18.2244V17.0824H17.161V18.2244H11.3997ZM21.9956 22.1193C21.4615 22.1193 20.9814 22.017 20.5552 21.8125C20.1319 21.6051 19.7939 21.321 19.541 20.9602C19.2882 20.5994 19.1532 20.1875 19.1362 19.7244H20.4146C20.4458 20.0994 20.612 20.4077 20.9132 20.6491C21.2143 20.8906 21.5751 21.0114 21.9956 21.0114C22.3308 21.0114 22.6277 20.9347 22.8862 20.7812C23.1475 20.625 23.3521 20.4105 23.4998 20.1378C23.6504 19.8651 23.7257 19.554 23.7257 19.2045C23.7257 18.8494 23.649 18.5327 23.4956 18.2543C23.3422 17.9759 23.1305 17.7571 22.8606 17.598C22.5936 17.4389 22.2868 17.358 21.9402 17.3551C21.676 17.3551 21.4103 17.4006 21.1433 17.4915C20.8762 17.5824 20.6603 17.7017 20.4956 17.8494L19.2896 17.6705L19.7797 13.2727H24.5779V14.402H20.8748L20.5978 16.8438H20.649C20.8194 16.679 21.0453 16.5412 21.3265 16.4304C21.6106 16.3196 21.9146 16.2642 22.2385 16.2642C22.7697 16.2642 23.2427 16.3906 23.6575 16.6435C24.0751 16.8963 24.4032 17.2415 24.6419 17.679C24.8833 18.1136 25.0027 18.6136 24.9998 19.179C25.0027 19.7443 24.8748 20.2486 24.6163 20.6918C24.3606 21.1349 24.0055 21.4844 23.551 21.7401C23.0993 21.9929 22.5808 22.1193 21.9956 22.1193Z" fill="#475467"/>
</svg>
