<svg width="36" height="36" viewBox="0 0 36 36" fill="none" xmlns="http://www.w3.org/2000/svg">
<rect x="1.25" y="1.25" width="33.5" height="33.5" rx="16.75" fill="#E9EDF5" stroke="white" stroke-width="1.5"/>
<path d="M9.63716 23V12.8182H15.9511V14.1406H11.1734V17.2429H15.4987V18.5604H11.1734V23H9.63716ZM26.6847 17.9091C26.6847 18.9962 26.4859 19.9309 26.0882 20.7131C25.6904 21.492 25.1452 22.0919 24.4525 22.5128C23.7631 22.9304 22.9793 23.1392 22.1009 23.1392C21.2193 23.1392 20.4321 22.9304 19.7394 22.5128C19.05 22.0919 18.5065 21.4903 18.1088 20.7081C17.711 19.9259 17.5122 18.9929 17.5122 17.9091C17.5122 16.822 17.711 15.889 18.1088 15.1101C18.5065 14.3279 19.05 13.728 19.7394 13.3104C20.4321 12.8894 21.2193 12.679 22.1009 12.679C22.9793 12.679 23.7631 12.8894 24.4525 13.3104C25.1452 13.728 25.6904 14.3279 26.0882 15.1101C26.4859 15.889 26.6847 16.822 26.6847 17.9091ZM25.1634 17.9091C25.1634 17.0805 25.0292 16.3828 24.7607 15.8161C24.4956 15.246 24.131 14.8151 23.667 14.5234C23.2063 14.2285 22.6843 14.081 22.1009 14.081C21.5143 14.081 20.9906 14.2285 20.5299 14.5234C20.0692 14.8151 19.7046 15.246 19.4362 15.8161C19.171 16.3828 19.0384 17.0805 19.0384 17.9091C19.0384 18.7377 19.171 19.437 19.4362 20.0071C19.7046 20.5739 20.0692 21.0047 20.5299 21.2997C20.9906 21.5914 21.5143 21.7372 22.1009 21.7372C22.6843 21.7372 23.2063 21.5914 23.667 21.2997C24.131 21.0047 24.4956 20.5739 24.7607 20.0071C25.0292 19.437 25.1634 18.7377 25.1634 17.9091Z" fill="#101928"/>
</svg>
