<svg width="140" height="140" viewBox="0 0 140 140" fill="none" xmlns="http://www.w3.org/2000/svg">
<g clip-path="url(#clip0_320_53925)">
<path d="M70 140C108.66 140 140 108.66 140 70C140 31.3401 108.66 0 70 0C31.3401 0 0 31.3401 0 70C0 108.66 31.3401 140 70 140Z" fill="#FECB32"/>
<path fill-rule="evenodd" clip-rule="evenodd" d="M18.945 46.4698L17.6237 51.5776L43.9322 40.1602L18.945 46.4698Z" fill="#FF7200"/>
<path d="M18.8763 60.8157V64.1237H27.4728V52.9971L18.8763 60.8157Z" fill="#D43264"/>
<path d="M18.8763 60.8283V64.1244H25.9078V55.0234L18.8763 60.8283Z" fill="#FF7200"/>
<path d="M84.7237 38.4685C85.2292 38.3307 86.1944 38.1927 87.619 38.1927C91.1118 38.1927 93.0879 39.8938 93.0879 42.7444C93.0879 45.9169 90.79 47.802 87.0675 47.802C86.0565 47.802 85.321 47.7561 84.7237 47.6181V38.4685ZM77.7842 64.1241H84.7237V53.0435C85.367 53.1355 86.1944 53.1815 87.1135 53.1815C91.2496 53.1815 94.7884 52.17 97.1781 49.917C99.0165 48.1698 100.027 45.5951 100.027 42.5606C100.027 39.5261 98.6947 36.9514 96.7185 35.3882C94.6504 33.7329 91.5713 32.9053 87.2513 32.9053C82.9773 32.9053 79.9441 33.1812 77.7842 33.549V64.1241Z" fill="#005EC2"/>
<path d="M120.06 45.3188H108.663V38.882H120.749V33.1348H101.631V64.1237H121.393V58.3765H108.663V51.02H120.06V45.3188Z" fill="#005EC2"/>
<path d="M18.8763 33.1348V50.2883L23.1692 48.5484L43.9551 40.1237C41.7845 41.9157 39.6137 43.7078 37.443 45.4998V64.1237H44.4286V33.1348H37.443C37.443 35.1999 37.443 37.2651 37.443 39.3303C37.443 40.4386 36.8958 41.9157 34.4015 42.3883L25.9079 43.9977V33.1348H18.8763Z" fill="#005EC2"/>
<path fill-rule="evenodd" clip-rule="evenodd" d="M60.9559 33.4561C69.7912 33.4561 76.9536 40.6216 76.9536 49.4608C76.9536 58.3 69.7912 65.4656 60.9559 65.4656C52.1207 65.4656 44.9583 58.3 44.9583 49.4608C44.9583 40.6216 52.1207 33.4561 60.9559 33.4561ZM60.9559 41.2486C65.4894 41.2486 69.1645 44.9254 69.1645 49.4608C69.1645 53.9963 65.4893 57.6731 60.9559 57.6731C56.4226 57.6731 52.7473 53.9962 52.7473 49.4608C52.7473 44.9254 56.4226 41.2486 60.9559 41.2486Z" fill="#005EC2"/>
<path d="M19.7957 73.0275V69.1605H21.2729C21.5325 69.1605 21.731 69.1731 21.8686 69.1973C22.0608 69.2289 22.222 69.2891 22.3523 69.3774C22.4825 69.4665 22.5873 69.5907 22.6665 69.7501C22.7458 69.9094 22.7849 70.0849 22.7849 70.2767C22.7849 70.6044 22.6792 70.8825 22.4671 71.1093C22.2558 71.337 21.8723 71.4504 21.3186 71.4504H20.315V73.0275H19.7958H19.7957ZM20.3148 70.9968H21.3258C21.661 70.9968 21.8977 70.9356 22.0389 70.8122C22.1791 70.6889 22.2493 70.5161 22.2493 70.2919C22.2493 70.1308 22.2083 69.9922 22.1254 69.877C22.0426 69.7618 21.9332 69.6853 21.7984 69.6484C21.7109 69.6259 21.5498 69.6142 21.3157 69.6142H20.3147L20.3148 70.9968ZM26.2863 73.0275L27.7873 69.1605H28.3566L29.9495 73.0275H29.3602L28.9076 71.8555H27.26L26.8356 73.0275H26.2863ZM27.412 71.4397H28.7454L28.3375 70.3676C28.2145 70.0417 28.1216 69.7726 28.0569 69.5602C28.0032 69.8122 27.9313 70.0598 27.8411 70.3046L27.412 71.4397ZM34.738 73.0275V71.3892L33.2297 69.1605H33.8527L34.6259 70.3306C34.7698 70.5475 34.9037 70.7645 35.0258 70.9815C35.1451 70.7789 35.2899 70.5521 35.4584 70.3001L36.2162 69.1605H36.82L35.2572 71.3892V73.0275H34.738ZM40.9492 73.0275V69.1605H41.7252L42.6505 71.8978C42.7362 72.1525 42.7981 72.3433 42.8372 72.4703C42.8819 72.3299 42.9519 72.1229 43.0467 71.8501L43.9885 69.1605H44.6816V73.0276H44.1843V69.7925L43.0421 73.0276H42.5758L41.4465 69.7331V73.0276L40.9492 73.0275ZM49.2032 73.0275V69.1605H52.0285V69.6141H49.7223V70.8023H51.8808V71.256H49.7223V72.5738H52.1213V73.0275H49.2032ZM56.5119 73.0275V69.1605H57.0438L59.0966 72.1957V69.1605H59.594V73.0275H59.062L57.0091 69.9923V73.0275H56.5119ZM65.1384 73.0275V69.6141H63.8487V69.1605H66.9472V69.6141H65.6575V73.0275H65.1384ZM73.9308 71.7853L74.4172 71.7421C74.4399 71.9365 74.4936 72.0958 74.5784 72.221C74.6631 72.3452 74.7941 72.4461 74.9717 72.5234C75.1494 72.5999 75.3497 72.6387 75.572 72.6387C75.7696 72.6387 75.9436 72.6099 76.0948 72.5514C76.2459 72.4929 76.3579 72.4128 76.4318 72.3111C76.5056 72.2094 76.5429 72.0987 76.5429 71.9798C76.5429 71.8592 76.5074 71.7539 76.4364 71.6629C76.3654 71.5729 76.2479 71.4974 76.0839 71.4352C75.9792 71.3956 75.7468 71.3326 75.3871 71.2471C75.0273 71.1616 74.776 71.0814 74.6321 71.0058C74.4454 70.9087 74.3069 70.788 74.2158 70.6449C74.1238 70.5018 74.0782 70.3407 74.0782 70.1633C74.0782 69.9671 74.1347 69.7844 74.2467 69.6152C74.3588 69.4451 74.5218 69.3163 74.7377 69.2281C74.9526 69.1399 75.1922 69.0958 75.4553 69.0958C75.745 69.0958 76.0009 69.1417 76.2223 69.2344C76.4435 69.3262 76.6139 69.4621 76.7332 69.6422C76.8525 69.8213 76.9163 70.0247 76.9253 70.2515L76.428 70.2893C76.4016 70.0454 76.3115 69.8609 76.1576 69.7367C76.0036 69.6115 75.776 69.5495 75.4754 69.5495C75.1621 69.5495 74.9335 69.6062 74.7905 69.7197C74.6475 69.833 74.5756 69.9699 74.5756 70.1301C74.5756 70.2688 74.6266 70.3831 74.7277 70.473C74.8279 70.5622 75.0875 70.6548 75.5082 70.7485C75.929 70.843 76.2177 70.9249 76.3745 70.9951C76.6013 71.0987 76.7698 71.2292 76.8781 71.3885C76.9865 71.5469 77.0402 71.7296 77.0402 71.9366C77.0402 72.1428 76.981 72.3354 76.8618 72.5173C76.7424 72.6991 76.5721 72.8404 76.3489 72.9412C76.1257 73.042 75.8753 73.0925 75.5957 73.0925C75.2423 73.0925 74.9463 73.0412 74.7076 72.9395C74.4681 72.8377 74.2814 72.6848 74.1457 72.4795C74.0091 72.2751 73.938 72.0438 73.9308 71.7855V71.7853ZM81.4361 73.0275V69.1605H84.2614V69.6141H81.9553V70.8023H84.1138V71.256H81.9553V72.5738H84.3542V73.0275H81.4361ZM88.7612 73.0275V69.1605H90.4954C90.8442 69.1605 91.1093 69.1956 91.2905 69.2648C91.4718 69.3342 91.6166 69.4566 91.7249 69.6321C91.8333 69.8076 91.8871 70.0021 91.8871 70.2145C91.8871 70.489 91.7969 70.7204 91.6175 70.9085C91.4381 71.0966 91.1613 71.2154 90.786 71.2668C90.9235 71.3316 91.0274 71.3964 91.0984 71.4595C91.2495 71.5963 91.3925 71.7682 91.5264 71.9743L92.2032 73.0275H91.5565L91.0391 72.2228C90.8889 71.9896 90.7642 71.8123 90.6667 71.689C90.5683 71.5657 90.4809 71.4801 90.4035 71.4306C90.327 71.382 90.2478 71.3479 90.1676 71.3281C90.1093 71.3163 90.0137 71.31 89.8797 71.31H89.2805V73.0274L88.7612 73.0275ZM89.2804 70.8672H90.3916C90.6284 70.8672 90.8123 70.8429 90.9454 70.7943C91.0784 70.7466 91.1795 70.6691 91.2478 70.562C91.317 70.4558 91.3516 70.3405 91.3516 70.2155C91.3516 70.0327 91.2851 69.8816 91.1512 69.7635C91.0173 69.6457 90.806 69.5871 90.5173 69.5871H89.2805L89.2804 70.8672ZM97.3933 73.0275L95.8814 69.1605H96.4424L97.4588 71.9707C97.5399 72.1958 97.6092 72.4064 97.6637 72.6035C97.7239 72.3919 97.7939 72.1813 97.8741 71.9707L98.9288 69.1605H99.457L97.9315 73.0275H97.3933ZM103.691 73.0275V69.1605H104.533V73.0275H103.691ZM111.589 71.671L112.108 71.8006C112 72.221 111.805 72.5405 111.523 72.7611C111.242 72.9817 110.898 73.0924 110.49 73.0924C110.07 73.0924 109.727 73.0078 109.463 72.8377C109.199 72.6684 108.999 72.4227 108.861 72.1013C108.723 71.7791 108.654 71.4344 108.654 71.0653C108.654 70.6629 108.732 70.3119 108.887 70.0121C109.043 69.7123 109.265 69.4846 109.551 69.3289C109.838 69.1732 110.154 69.0957 110.499 69.0957C110.89 69.0957 111.219 69.1938 111.485 69.391C111.752 69.5881 111.938 69.8645 112.042 70.2209L111.534 70.3398C111.444 70.0589 111.312 69.8537 111.14 69.7258C110.968 69.5971 110.751 69.5332 110.489 69.5332C110.19 69.5332 109.938 69.6043 109.737 69.7465C109.536 69.8888 109.394 70.0805 109.313 70.3199C109.231 70.5602 109.19 70.8077 109.19 71.0625C109.19 71.3911 109.238 71.6782 109.335 71.923C109.431 72.1688 109.581 72.3515 109.785 72.473C109.989 72.5945 110.21 72.6548 110.447 72.6548C110.737 72.6548 110.981 72.572 111.182 72.4072C111.382 72.2417 111.518 71.9967 111.589 71.6709L111.589 71.671ZM116.439 73.0275V69.1605H119.265V69.6141H116.958V70.8023H119.117V71.256H116.958V72.5738H119.357V73.0275H116.439Z" fill="#4B4B4D"/>
<path d="M17.9855 107.095H29.5472C35.9199 107.095 41.1999 104.447 41.1999 98.3292C41.1999 94.4028 39.1061 92.2113 34.9184 91.3896V91.207C38.3779 90.2939 39.8345 87.3719 39.8345 84.8152C39.8345 78.9713 34.8274 77.419 28.6369 77.419H17.9855V107.095ZM25.8147 89.1069V83.4456H28.4548C31.0039 83.4456 32.1873 84.1761 32.1873 86.0023C32.1873 87.8286 31.0039 89.1069 28.4548 89.1069H25.8147ZM25.8147 101.069V94.5854H29.0011C32.0963 94.5854 33.5528 95.4985 33.5528 97.69C33.5528 99.8815 32.0962 101.069 29.0011 101.069H25.8147ZM51.3231 94.7224L51.8238 92.6679C52.5159 89.8282 53.2804 86.2763 53.9176 83.2629H54.0997C54.8281 86.2305 55.5926 89.8287 56.2846 92.6679L56.7854 94.7224H51.3231ZM59.653 107.095H67.9373L58.9246 77.419H49.4567L40.444 107.095H48.4553L49.9119 100.795H58.1962L59.6528 107.095H59.653ZM69.9223 107.095H77.3874V98.5118C77.3874 94.8594 76.7501 90.5678 76.386 87.1893H76.5681L79.3902 93.8093L85.9449 107.095H93.9561V77.4189H86.491V86.0022C86.491 89.6526 87.1283 94.1289 87.4925 97.3247H87.3104L84.4882 90.659L77.9335 77.4189H69.9223V107.095ZM96.4901 107.095H104.319V99.6988L107.142 95.6812L113.696 107.095H122.254L111.693 89.4721L120.524 77.419H111.966L104.501 88.4676H104.319V77.419H96.4901V107.095Z" fill="#005EC2"/>
</g>
<defs>
<clipPath id="clip0_320_53925">
<rect width="140" height="140" fill="white"/>
</clipPath>
</defs>
</svg>
