<svg width="20" height="20" viewBox="0 0 20 20" fill="none" xmlns="http://www.w3.org/2000/svg">
<path d="M14.5647 7.50922C14.571 7.50919 14.5772 7.50917 14.5834 7.50917C16.6545 7.50917 18.3334 9.19118 18.3334 11.2661C18.3334 13.1998 16.8751 14.7924 15.0001 15M14.5647 7.50922C14.5771 7.37172 14.5834 7.23247 14.5834 7.09174C14.5834 4.55579 12.5314 2.5 10.0001 2.5C7.60278 2.5 5.63535 4.34389 5.43377 6.69326M14.5647 7.50922C14.4795 8.45632 14.1073 9.3205 13.5358 10.0138M5.43377 6.69326C3.32007 6.89477 1.66675 8.67827 1.66675 10.8486C1.66675 12.8681 3.09821 14.5527 5.00008 14.9394M5.43377 6.69326C5.5653 6.68072 5.69861 6.67431 5.83341 6.67431C6.7716 6.67431 7.63737 6.98495 8.33382 7.50917" stroke="#464F60" stroke-width="1.3" stroke-linecap="round" stroke-linejoin="round"/>
<path d="M10.0001 17.5L10.0001 10.8333M10.0001 17.5C9.41656 17.5 8.32636 15.8381 7.91675 15.4167M10.0001 17.5C10.5836 17.5 11.6738 15.8381 12.0834 15.4167" stroke="#464F60" stroke-width="1.3" stroke-linecap="round" stroke-linejoin="round"/>
</svg>
