<svg width="36" height="36" viewBox="0 0 36 36" fill="none" xmlns="http://www.w3.org/2000/svg">
<rect x="1" y="1" width="34" height="34" rx="17" fill="#F9FAFB"/>
<rect x="1" y="1" width="34" height="34" rx="17" stroke="white" stroke-width="2"/>
<path d="M10.7754 20.5341V14.7727H11.9217V20.5341H10.7754ZM8.46999 18.2244V17.0824H14.2314V18.2244H8.46999ZM19.4963 13.2727V22H18.1752V14.5938H18.1241L16.036 15.9574V14.696L18.2136 13.2727H19.4963ZM24.7591 13.1534C25.1483 13.1562 25.5318 13.2273 25.9096 13.3665C26.2875 13.5057 26.6284 13.733 26.9324 14.0483C27.2392 14.3636 27.4835 14.7898 27.6653 15.3267C27.85 15.8608 27.9437 16.5256 27.9466 17.321C27.9466 18.0852 27.8699 18.7656 27.7164 19.3622C27.563 19.956 27.3429 20.4574 27.0559 20.8665C26.7718 21.2756 26.4267 21.5866 26.0204 21.7997C25.6142 22.0128 25.1568 22.1193 24.6483 22.1193C24.1284 22.1193 23.6667 22.017 23.2633 21.8125C22.8599 21.608 22.5318 21.3253 22.2789 20.9645C22.0261 20.6009 21.8684 20.1832 21.8059 19.7116H23.1056C23.1909 20.0866 23.3642 20.3906 23.6255 20.6236C23.8897 20.8537 24.2306 20.9688 24.6483 20.9688C25.2875 20.9688 25.786 20.6903 26.144 20.1335C26.502 19.5739 26.6824 18.7926 26.6852 17.7898H26.617C26.4693 18.0341 26.2846 18.2443 26.063 18.4205C25.8443 18.5966 25.5985 18.733 25.3258 18.8295C25.0531 18.9261 24.7619 18.9744 24.4522 18.9744C23.9494 18.9744 23.492 18.8509 23.0801 18.6037C22.6681 18.3565 22.34 18.017 22.0957 17.5852C21.8514 17.1534 21.7292 16.6605 21.7292 16.1065C21.7292 15.5554 21.8542 15.0554 22.1042 14.6065C22.3571 14.1577 22.7093 13.8026 23.161 13.5412C23.6156 13.277 24.1483 13.1477 24.7591 13.1534ZM24.7633 14.2614C24.4309 14.2614 24.1312 14.3437 23.8642 14.5085C23.6 14.6705 23.3912 14.8906 23.2377 15.169C23.0843 15.4446 23.0076 15.7514 23.0076 16.0895C23.0076 16.4276 23.0815 16.7344 23.2292 17.0099C23.3798 17.2827 23.5843 17.5 23.8429 17.6619C24.1042 17.821 24.4025 17.9006 24.7377 17.9006C24.9877 17.9006 25.2207 17.8523 25.4366 17.7557C25.6525 17.6591 25.8414 17.5256 26.0034 17.3551C26.1653 17.1818 26.2917 16.9858 26.3826 16.767C26.4735 16.5483 26.519 16.3182 26.519 16.0767C26.519 15.7557 26.4423 15.4574 26.2889 15.1818C26.1383 14.9062 25.9309 14.6847 25.6667 14.517C25.4025 14.3466 25.1014 14.2614 24.7633 14.2614Z" fill="#475467"/>
</svg>
