<svg width="20" height="17" viewBox="0 0 20 17" fill="none" xmlns="http://www.w3.org/2000/svg">
<path d="M15.5134 14.667H15.9219C16.8801 14.667 17.6423 14.2304 18.3266 13.62C20.065 12.0691 15.9784 10.5003 14.5833 10.5003M12.9167 2.2243C13.1059 2.18677 13.3024 2.16699 13.504 2.16699C15.0206 2.16699 16.25 3.28628 16.25 4.66699C16.25 6.0477 15.0206 7.16699 13.504 7.16699C13.3024 7.16699 13.1059 7.14722 12.9167 7.10969" stroke="#667085" stroke-width="1.5" stroke-linecap="round"/>
<path d="M3.73443 11.4263C2.75195 11.9528 0.175948 13.0279 1.7449 14.3732C2.51133 15.0303 3.36492 15.5003 4.4381 15.5003H10.5619C11.6351 15.5003 12.4887 15.0303 13.2551 14.3732C14.8241 13.0279 12.2481 11.9528 11.2656 11.4263C8.96167 10.1917 6.03832 10.1917 3.73443 11.4263Z" stroke="#667085" stroke-width="1.5"/>
<path d="M10.8333 4.25033C10.8333 6.09127 9.34095 7.58366 7.5 7.58366C5.65905 7.58366 4.16667 6.09127 4.16667 4.25033C4.16667 2.40938 5.65905 0.916992 7.5 0.916992C9.34095 0.916992 10.8333 2.40938 10.8333 4.25033Z" stroke="#667085" stroke-width="1.5"/>
</svg>
