<svg width="18" height="18" viewBox="0 0 18 18" fill="none" xmlns="http://www.w3.org/2000/svg">
<path d="M1.14963 6.18754C1.09071 5.69606 1.06125 5.45033 1.10268 5.24917C1.22092 4.67512 1.72592 4.20966 2.39892 4.0544C2.63476 4 2.93083 4 3.52297 4H14.477C15.0692 4 15.3652 4 15.6011 4.0544C16.2741 4.20966 16.7791 4.67512 16.8973 5.24917C16.9387 5.45033 16.9093 5.69606 16.8504 6.18754C16.7153 7.31391 16.0825 7.93004 14.876 8.28526L11.4 9.30858C10.2117 9.65842 9.61761 9.83333 9 9.83333C8.38238 9.83333 7.78824 9.65842 6.59996 9.30858L3.12401 8.28526C1.91745 7.93004 1.28467 7.31391 1.14963 6.18754Z" stroke="#667085" stroke-width="1.5"/>
<path d="M1.88569 7.75L1.72215 9.64643C1.42901 13.0459 1.28243 14.7456 2.22278 15.8311C3.16313 16.9167 4.78209 16.9167 8.02001 16.9167H9.97999C13.2179 16.9167 14.8369 16.9167 15.7772 15.8311C16.7176 14.7456 16.571 13.0459 16.2778 9.64643L16.1143 7.75" stroke="#667085" stroke-width="1.5" stroke-linecap="round" stroke-linejoin="round"/>
<path d="M11.9167 3.58301L11.8523 3.36225C11.5314 2.26222 11.371 1.7122 10.9891 1.3976C10.6072 1.08301 10.0999 1.08301 9.08528 1.08301H8.91471C7.90012 1.08301 7.39282 1.08301 7.0109 1.3976C6.62898 1.7122 6.46856 2.26222 6.14772 3.36225L6.08333 3.58301" stroke="#667085" stroke-width="1.5"/>
</svg>
