<svg width="20" height="20" viewBox="0 0 20 20" fill="none" xmlns="http://www.w3.org/2000/svg">
<path d="M1.66667 5.00033C1.66667 3.42898 1.66667 2.6433 2.15483 2.15515C2.64298 1.66699 3.42866 1.66699 5.00001 1.66699C6.57135 1.66699 7.35703 1.66699 7.84518 2.15515C8.33334 2.6433 8.33334 3.42898 8.33334 5.00033V6.66699C8.33334 8.23834 8.33334 9.02401 7.84518 9.51217C7.35703 10.0003 6.57135 10.0003 5.00001 10.0003C3.42866 10.0003 2.64298 10.0003 2.15483 9.51217C1.66667 9.02401 1.66667 8.23834 1.66667 6.66699V5.00033Z" stroke="#333B4A" stroke-width="1.5"/>
<path d="M1.66667 15.834C1.66667 15.0574 1.66667 14.6691 1.79354 14.3628C1.9627 13.9545 2.28715 13.63 2.69553 13.4609C3.00182 13.334 3.3901 13.334 4.16667 13.334H5.83334C6.60991 13.334 6.99819 13.334 7.30448 13.4609C7.71286 13.63 8.03731 13.9545 8.20647 14.3628C8.33334 14.6691 8.33334 15.0574 8.33334 15.834C8.33334 16.6106 8.33334 16.9988 8.20647 17.3051C8.03731 17.7135 7.71286 18.038 7.30448 18.2071C6.99819 18.334 6.60991 18.334 5.83334 18.334H4.16667C3.3901 18.334 3.00182 18.334 2.69553 18.2071C2.28715 18.038 1.9627 17.7135 1.79354 17.3051C1.66667 16.9988 1.66667 16.6106 1.66667 15.834Z" stroke="#333B4A" stroke-width="1.5"/>
<path d="M11.6667 13.3333C11.6667 11.762 11.6667 10.9763 12.1548 10.4882C12.643 10 13.4287 10 15 10C16.5714 10 17.357 10 17.8452 10.4882C18.3333 10.9763 18.3333 11.762 18.3333 13.3333V15C18.3333 16.5713 18.3333 17.357 17.8452 17.8452C17.357 18.3333 16.5714 18.3333 15 18.3333C13.4287 18.3333 12.643 18.3333 12.1548 17.8452C11.6667 17.357 11.6667 16.5713 11.6667 15V13.3333Z" stroke="#333B4A" stroke-width="1.5"/>
<path d="M11.6667 4.16699C11.6667 3.39042 11.6667 3.00214 11.7935 2.69585C11.9627 2.28747 12.2872 1.96302 12.6955 1.79386C13.0018 1.66699 13.3901 1.66699 14.1667 1.66699H15.8333C16.6099 1.66699 16.9982 1.66699 17.3045 1.79386C17.7129 1.96302 18.0373 2.28747 18.2065 2.69585C18.3333 3.00214 18.3333 3.39042 18.3333 4.16699C18.3333 4.94356 18.3333 5.33185 18.2065 5.63813C18.0373 6.04651 17.7129 6.37097 17.3045 6.54012C16.9982 6.66699 16.6099 6.66699 15.8333 6.66699H14.1667C13.3901 6.66699 13.0018 6.66699 12.6955 6.54012C12.2872 6.37097 11.9627 6.04651 11.7935 5.63813C11.6667 5.33185 11.6667 4.94356 11.6667 4.16699Z" stroke="#333B4A" stroke-width="1.5"/>
</svg>
