<svg width="20" height="16" viewBox="0 0 20 16" fill="none" xmlns="http://www.w3.org/2000/svg">
<path fill-rule="evenodd" clip-rule="evenodd" d="M9.52966 1.59045C8.61147 0.947717 7.38938 0.947715 6.47119 1.59045L1.88614 4.79998C1.11373 5.34067 0.684251 6.24905 0.756564 7.18913L1.22658 13.2993C1.31522 14.4517 2.35936 15.2892 3.50353 15.1258L5.6166 14.8239C6.6019 14.6832 7.33376 13.8393 7.33376 12.844V12.0004C7.33376 11.6322 7.63224 11.3338 8.00043 11.3338C8.36862 11.3338 8.66709 11.6322 8.66709 12.0004V12.844C8.66709 13.8393 9.39895 14.6832 10.3843 14.8239L12.4973 15.1258C13.6415 15.2892 14.6856 14.4517 14.7743 13.2993L15.2443 7.18913C15.3166 6.24905 14.8871 5.34067 14.1147 4.79998L9.52966 1.59045ZM7.23581 2.68276C7.6949 2.36139 8.30595 2.36139 8.76505 2.68276L13.3501 5.89229C13.7363 6.16264 13.951 6.61683 13.9149 7.08686L13.4449 13.197C13.4153 13.5812 13.0673 13.8603 12.6859 13.8059L10.5728 13.504C10.2444 13.4571 10.0004 13.1758 10.0004 12.844V12.0004C10.0004 10.8959 9.105 10.0004 8.00043 10.0004C6.89586 10.0004 6.00043 10.8959 6.00043 12.0004V12.844C6.00043 13.1758 5.75647 13.4571 5.42804 13.504L3.31497 13.8059C2.93358 13.8603 2.58553 13.5812 2.55598 13.197L2.08597 7.08686C2.04981 6.61683 2.26455 6.16264 2.65076 5.89229L7.23581 2.68276Z" fill="#667185"/>
</svg>
