<svg width="38" height="38" viewBox="0 0 38 38" fill="none" xmlns="http://www.w3.org/2000/svg">
<g clip-path="url(#clip0_320_53910)">
<path d="M19 38C29.4934 38 38 29.4934 38 19C38 8.50659 29.4934 0 19 0C8.50659 0 0 8.50659 0 19C0 29.4934 8.50659 38 19 38Z" fill="#FECB32"/>
<path fill-rule="evenodd" clip-rule="evenodd" d="M5.14223 12.613L4.78357 13.9994L11.9244 10.9004L5.14223 12.613Z" fill="#FF7200"/>
<path d="M5.1236 16.507V17.4048H7.45693V14.3848L5.1236 16.507Z" fill="#D43264"/>
<path d="M5.1236 16.5111V17.4058H7.03214V14.9355L5.1236 16.5111Z" fill="#FF7200"/>
<path d="M22.9964 10.4417C23.1336 10.4043 23.3956 10.3668 23.7823 10.3668C24.7303 10.3668 25.2667 10.8285 25.2667 11.6023C25.2667 12.4634 24.643 12.9751 23.6326 12.9751C23.3582 12.9751 23.1586 12.9626 22.9964 12.9251V10.4417ZM21.1129 17.4053H22.9964V14.3977C23.1711 14.4227 23.3956 14.4352 23.6451 14.4352C24.7678 14.4352 25.7283 14.1606 26.3769 13.5491C26.8759 13.0749 27.1503 12.376 27.1503 11.5524C27.1503 10.7287 26.7886 10.0299 26.2522 9.60557C25.6908 9.15628 24.8551 8.93164 23.6825 8.93164C22.5224 8.93164 21.6991 9.00653 21.1129 9.10636V17.4053Z" fill="#005EC2"/>
<path d="M32.5878 12.3012H29.4942V10.5541H32.7748V8.99414H27.5856V17.4054H32.9495V15.8455H29.4942V13.8487H32.5878V12.3012Z" fill="#005EC2"/>
<path d="M5.1236 8.99414V13.6501L6.28879 13.1778L11.9307 10.8911C11.3415 11.3775 10.7523 11.864 10.1631 12.3504V17.4054H12.0592V8.99414H10.1631C10.1631 9.55467 10.1631 10.1152 10.1631 10.6758C10.1631 10.9766 10.0146 11.3775 9.33757 11.5058L7.03216 11.9427V8.99414H5.1236Z" fill="#005EC2"/>
<path fill-rule="evenodd" clip-rule="evenodd" d="M16.5452 9.08105C18.9433 9.08105 20.8874 11.026 20.8874 13.4252C20.8874 15.8244 18.9433 17.7694 16.5452 17.7694C14.147 17.7694 12.2029 15.8244 12.2029 13.4252C12.2029 11.026 14.147 9.08105 16.5452 9.08105ZM16.5452 11.1962C17.7757 11.1962 18.7732 12.1942 18.7732 13.4252C18.7732 14.6563 17.7757 15.6542 16.5452 15.6542C15.3147 15.6542 14.3171 14.6562 14.3171 13.4252C14.3171 12.1942 15.3147 11.1962 16.5452 11.1962Z" fill="#005EC2"/>
<path d="M5.37311 19.8221V18.7725H5.77407C5.84453 18.7725 5.89841 18.7759 5.93576 18.7825C5.98793 18.791 6.03168 18.8074 6.06705 18.8313C6.10239 18.8555 6.13083 18.8892 6.15234 18.9325C6.17385 18.9758 6.18448 19.0234 6.18448 19.0754C6.18448 19.1644 6.15579 19.2399 6.09821 19.3014C6.04085 19.3632 5.93677 19.394 5.78649 19.394H5.51406V19.8221H5.37315H5.37311ZM5.51402 19.2709H5.78843C5.87941 19.2709 5.94367 19.2543 5.98199 19.2208C6.02005 19.1873 6.03909 19.1404 6.03909 19.0796C6.03909 19.0359 6.02796 18.9982 6.00546 18.9669C5.98299 18.9357 5.9533 18.9149 5.91672 18.9049C5.89297 18.8988 5.84924 18.8956 5.78569 18.8956H5.51399L5.51402 19.2709ZM7.13486 19.8221L7.54227 18.7725H7.69679L8.12916 19.8221H7.96921L7.84636 19.504H7.39915L7.28396 19.8221H7.13486ZM7.44041 19.3911H7.80233L7.6916 19.1001C7.65822 19.0117 7.63301 18.9386 7.61545 18.881C7.60086 18.9494 7.58134 19.0166 7.55686 19.083L7.44041 19.3911ZM9.42889 19.8221V19.3774L9.01949 18.7725H9.18859L9.39846 19.0901C9.43753 19.149 9.47386 19.2079 9.507 19.2667C9.5394 19.2118 9.57869 19.1502 9.62444 19.0818L9.83011 18.7725H9.99401L9.5698 19.3774V19.8221H9.42889ZM11.1148 19.8221V18.7725H11.3254L11.5766 19.5155C11.5998 19.5846 11.6166 19.6364 11.6273 19.6709C11.6394 19.6327 11.6584 19.5766 11.6841 19.5025L11.9397 18.7725H12.1279V19.8221H11.9929V18.944L11.6829 19.8221H11.5563L11.2498 18.9279V19.8221L11.1148 19.8221ZM13.3551 19.8221V18.7725H14.122V18.8956H13.4961V19.2181H14.0819V19.3412H13.4961V19.6989H14.1472V19.8221H13.3551ZM15.3389 19.8221V18.7725H15.4833L16.0405 19.5963V18.7725H16.1755V19.8221H16.0311L15.4739 18.9982V19.8221H15.3389ZM17.6804 19.8221V18.8956H17.3304V18.7725H18.1714V18.8956H17.8213V19.8221H17.6804ZM20.0669 19.4849L20.1989 19.4732C20.2051 19.526 20.2197 19.5692 20.2427 19.6032C20.2657 19.6369 20.3013 19.6643 20.3495 19.6853C20.3977 19.706 20.4521 19.7166 20.5124 19.7166C20.566 19.7166 20.6133 19.7087 20.6543 19.6929C20.6953 19.677 20.7257 19.6552 20.7458 19.6276C20.7658 19.6 20.7759 19.57 20.7759 19.5377C20.7759 19.505 20.7663 19.4764 20.747 19.4517C20.7277 19.4273 20.6959 19.4068 20.6513 19.3899C20.6229 19.3791 20.5599 19.362 20.4622 19.3388C20.3646 19.3156 20.2964 19.2939 20.2573 19.2734C20.2066 19.247 20.169 19.2142 20.1443 19.1754C20.1193 19.1365 20.107 19.0928 20.107 19.0447C20.107 18.9914 20.1223 18.9418 20.1527 18.8959C20.1831 18.8497 20.2273 18.8148 20.2859 18.7908C20.3443 18.7669 20.4093 18.7549 20.4807 18.7549C20.5594 18.7549 20.6288 18.7674 20.6889 18.7925C20.749 18.8174 20.7952 18.8543 20.8276 18.9032C20.86 18.9518 20.8773 19.007 20.8797 19.0686L20.7448 19.0789C20.7376 19.0127 20.7131 18.9626 20.6713 18.9289C20.6296 18.8949 20.5678 18.8781 20.4862 18.8781C20.4011 18.8781 20.3391 18.8934 20.3003 18.9242C20.2615 18.955 20.2419 18.9922 20.2419 19.0356C20.2419 19.0733 20.2558 19.1043 20.2832 19.1287C20.3104 19.1529 20.3809 19.1781 20.4951 19.2035C20.6093 19.2292 20.6877 19.2514 20.7302 19.2704C20.7918 19.2985 20.8375 19.334 20.8669 19.3772C20.8963 19.4202 20.9109 19.4698 20.9109 19.526C20.9109 19.5819 20.8948 19.6342 20.8625 19.6836C20.8301 19.7329 20.7839 19.7713 20.7233 19.7987C20.6627 19.826 20.5947 19.8397 20.5188 19.8397C20.4229 19.8397 20.3426 19.8258 20.2778 19.7982C20.2128 19.7706 20.1621 19.7291 20.1253 19.6733C20.0882 19.6179 20.0689 19.5551 20.0669 19.485V19.4849ZM22.1041 19.8221V18.7725H22.871V18.8956H22.245V19.2181H22.8309V19.3412H22.245V19.6989H22.8962V19.8221H22.1041ZM24.0923 19.8221V18.7725H24.563C24.6577 18.7725 24.7297 18.782 24.7789 18.8008C24.8281 18.8196 24.8674 18.8528 24.8968 18.9005C24.9262 18.9481 24.9408 19.0009 24.9408 19.0586C24.9408 19.1331 24.9163 19.1959 24.8676 19.2469C24.8189 19.298 24.7438 19.3302 24.6419 19.3442C24.6792 19.3618 24.7074 19.3794 24.7267 19.3965C24.7677 19.4336 24.8065 19.4803 24.8429 19.5362L25.0266 19.8221H24.8511L24.7106 19.6037C24.6698 19.5404 24.636 19.4922 24.6095 19.4588C24.5828 19.4253 24.5591 19.4021 24.5381 19.3886C24.5173 19.3754 24.4958 19.3662 24.4741 19.3608C24.4583 19.3576 24.4323 19.3559 24.3959 19.3559H24.2333V19.8221L24.0923 19.8221ZM24.2333 19.2357H24.5349C24.5991 19.2357 24.6491 19.2291 24.6852 19.2159C24.7213 19.203 24.7487 19.1819 24.7673 19.1529C24.786 19.1241 24.7954 19.0928 24.7954 19.0588C24.7954 19.0092 24.7774 18.9682 24.7411 18.9361C24.7047 18.9042 24.6473 18.8883 24.569 18.8883H24.2333L24.2333 19.2357ZM26.4353 19.8221L26.025 18.7725H26.1772L26.4531 19.5352C26.4751 19.5963 26.4939 19.6535 26.5087 19.707C26.5251 19.6496 26.5441 19.5924 26.5658 19.5352L26.8521 18.7725H26.9955L26.5814 19.8221H26.4353ZM28.1447 19.8221V18.7725H28.3733V19.8221H28.1447ZM30.2884 19.4539L30.4293 19.4891C30.3999 19.6032 30.347 19.6899 30.2706 19.7498C30.1942 19.8096 30.1008 19.8397 29.9903 19.8397C29.8761 19.8397 29.7831 19.8167 29.7114 19.7706C29.6397 19.7246 29.5853 19.6579 29.548 19.5707C29.5107 19.4832 29.4919 19.3897 29.4919 19.2895C29.4919 19.1803 29.5129 19.085 29.5552 19.0036C29.5974 18.9223 29.6575 18.8604 29.7354 18.8182C29.8133 18.7759 29.8991 18.7549 29.9925 18.7549C30.0988 18.7549 30.188 18.7815 30.2602 18.835C30.3326 18.8885 30.383 18.9636 30.4115 19.0603L30.2735 19.0926C30.2491 19.0163 30.2132 18.9606 30.1665 18.9259C30.1198 18.891 30.0609 18.8736 29.99 18.8736C29.9087 18.8736 29.8404 18.8929 29.7858 18.9315C29.7312 18.9701 29.6926 19.0222 29.6706 19.0872C29.6483 19.1524 29.6372 19.2196 29.6372 19.2887C29.6372 19.3779 29.6503 19.4558 29.6765 19.5223C29.7027 19.589 29.7435 19.6386 29.7989 19.6716C29.8543 19.7046 29.9141 19.7209 29.9786 19.7209C30.0572 19.7209 30.1235 19.6985 30.1779 19.6537C30.2323 19.6088 30.2691 19.5423 30.2884 19.4539L30.2884 19.4539ZM31.6049 19.8221V18.7725H32.3718V18.8956H31.7458V19.2181H32.3317V19.3412H31.7458V19.6989H32.397V19.8221H31.6049Z" fill="#4B4B4D"/>
<path d="M4.88177 29.0686H8.01996C9.74969 29.0686 11.1828 28.3498 11.1828 26.6893C11.1828 25.6236 10.6145 25.0287 9.47787 24.8057V24.7561C10.4169 24.5083 10.8122 23.7152 10.8122 23.0212C10.8122 21.435 9.45317 21.0137 7.77287 21.0137H4.88177V29.0686ZM7.00686 24.1861V22.6495H7.72344C8.41534 22.6495 8.73656 22.8477 8.73656 23.3434C8.73656 23.8391 8.41534 24.1861 7.72344 24.1861H7.00686ZM7.00686 27.4329V25.6732H7.87172C8.71186 25.6732 9.10719 25.921 9.10719 26.5158C9.10719 27.1106 8.71184 27.4329 7.87172 27.4329H7.00686ZM13.9306 25.7103L14.0665 25.1527C14.2543 24.3819 14.4618 23.4178 14.6348 22.5999H14.6842C14.8819 23.4054 15.0894 24.382 15.2773 25.1527L15.4132 25.7103H13.9306ZM16.1915 29.0686H18.4401L15.9938 21.0137H13.424L10.9777 29.0686H13.1522L13.5475 27.3585H15.7961L16.1915 29.0686H16.1915ZM18.9789 29.0686H21.0052V26.7389C21.0052 25.7475 20.8322 24.5827 20.7333 23.6656H20.7828L21.5488 25.4625L23.3279 29.0686H25.5024V21.0137H23.4761V23.3434C23.4761 24.3342 23.6491 25.5492 23.748 26.4167H23.6985L22.9325 24.6074L21.1534 21.0137H18.9789V29.0686ZM26.1902 29.0686H28.3153V27.0611L29.0813 25.9706L30.8604 29.0686H33.1831L30.3168 24.2852L32.7136 21.0137H30.3909L28.3647 24.0126H28.3153V21.0137H26.1902V29.0686Z" fill="#005EC2"/>
</g>
<defs>
<clipPath id="clip0_320_53910">
<rect width="38" height="38" fill="white"/>
</clipPath>
</defs>
</svg>
