<svg width="20" height="20" viewBox="0 0 20 20" fill="none" xmlns="http://www.w3.org/2000/svg">
<g clip-path="url(#clip0_1030_1774)">
<path d="M1.66667 7.14122C1.66667 6.1444 2.06866 5.53351 2.90053 5.07056L6.3249 3.16486C8.11926 2.16628 9.01643 1.66699 10 1.66699C10.9836 1.66699 11.8808 2.16628 13.6751 3.16486L17.0995 5.07056C17.9314 5.53351 18.3333 6.1444 18.3333 7.14122C18.3333 7.41152 18.3333 7.54667 18.3038 7.65778C18.1487 8.24153 17.6198 8.33366 17.1089 8.33366H2.89107C2.38023 8.33366 1.85127 8.24153 1.69619 7.65778C1.66667 7.54667 1.66667 7.41152 1.66667 7.14122Z" stroke="#667085" stroke-width="1.5"/>
<path d="M9.99659 5.83398H10.0041" stroke="#667085" stroke-width="2" stroke-linecap="round" stroke-linejoin="round"/>
<path d="M3.33334 8.33398V15.4173M6.66668 8.33398V15.4173" stroke="#667085" stroke-width="1.5"/>
<path d="M13.3333 8.33398V15.4173M16.6667 8.33398V15.4173" stroke="#667085" stroke-width="1.5"/>
<path d="M15.8333 15.417H4.16667C2.78596 15.417 1.66667 16.5363 1.66667 17.917C1.66667 18.1471 1.85322 18.3337 2.08334 18.3337H17.9167C18.1468 18.3337 18.3333 18.1471 18.3333 17.917C18.3333 16.5363 17.2141 15.417 15.8333 15.417Z" stroke="#667085" stroke-width="1.5"/>
</g>
<defs>
<clipPath id="clip0_1030_1774">
<rect width="20" height="20" fill="white"/>
</clipPath>
</defs>
</svg>
