<svg width="20" height="20" viewBox="0 0 20 20" fill="none" xmlns="http://www.w3.org/2000/svg">
<g clip-path="url(#clip0_1030_1793)">
<ellipse cx="12.9167" cy="9.16667" rx="5.41667" ry="1.66667" stroke="#667085" stroke-width="1.5"/>
<path d="M18.3333 12.917C18.3333 13.8375 15.9082 14.5837 12.9167 14.5837C9.92512 14.5837 7.5 13.8375 7.5 12.917" stroke="#667085" stroke-width="1.5"/>
<path d="M18.3333 9.16699V16.5003C18.3333 17.5128 15.9082 18.3337 12.9167 18.3337C9.92512 18.3337 7.5 17.5128 7.5 16.5003V9.16699" stroke="#667085" stroke-width="1.5"/>
<ellipse cx="7.08334" cy="3.33366" rx="5.41667" ry="1.66667" stroke="#667085" stroke-width="1.5"/>
<path d="M5.00001 9.16667C3.42349 8.97481 1.97493 8.47878 1.66667 7.5M5.00001 13.3333C3.42349 13.1415 1.97493 12.6455 1.66667 11.6667" stroke="#667085" stroke-width="1.5" stroke-linecap="round"/>
<path d="M5.00001 17.5007C3.42349 17.3088 1.97493 16.8128 1.66667 15.834L1.66667 3.33398" stroke="#667085" stroke-width="1.5" stroke-linecap="round"/>
<path d="M12.5 5.00065V3.33398" stroke="#667085" stroke-width="1.5" stroke-linecap="round"/>
</g>
<defs>
<clipPath id="clip0_1030_1793">
<rect width="20" height="20" fill="white"/>
</clipPath>
</defs>
</svg>
