<svg width="20" height="20" viewBox="0 0 20 20" fill="none" xmlns="http://www.w3.org/2000/svg">
<path d="M10 6.78585C8.22481 6.78585 6.78572 8.22494 6.78572 10.0001C6.78572 11.7753 8.22481 13.2144 10 13.2144C10.9634 13.2144 11.8279 12.7905 12.417 12.1191C12.9134 11.5534 13.2143 10.8119 13.2143 10.0001C13.2143 9.67161 13.165 9.35459 13.0734 9.05607C12.6701 7.74157 11.4467 6.78585 10 6.78585ZM7.85715 10.0001C7.85715 8.81667 8.81654 7.85728 10 7.85728C11.1835 7.85728 12.1429 8.81667 12.1429 10.0001C12.1429 11.1836 11.1835 12.143 10 12.143C8.81654 12.143 7.85715 11.1836 7.85715 10.0001ZM15.5066 15.9963L14.2727 15.4547C13.9197 15.2999 13.5051 15.3226 13.1714 15.5158C12.8378 15.7089 12.625 16.0496 12.5826 16.4333L12.4343 17.7755C12.4037 18.0522 12.2029 18.2799 11.9325 18.3443C10.6616 18.6473 9.33751 18.6473 8.06662 18.3443C7.79626 18.2799 7.59546 18.0522 7.56487 17.7755L7.41674 16.4353C7.37323 16.0523 7.15086 15.7127 6.81752 15.5202C6.48417 15.3276 6.07942 15.3051 5.72757 15.459L4.49337 16.0007C4.23773 16.113 3.93924 16.0514 3.74862 15.8471C2.86054 14.8955 2.19946 13.7545 1.81516 12.5099C1.73239 12.2418 1.82802 11.9506 2.05351 11.7842L3.14443 10.9789C3.45516 10.7502 3.63868 10.3869 3.63868 10.0006C3.63868 9.61423 3.45516 9.25096 3.14402 9.02192L2.05378 8.21804C1.82797 8.05154 1.73224 7.75996 1.81531 7.49166C2.20028 6.2482 2.8617 5.10841 3.7498 4.15805C3.94061 3.95387 4.23924 3.89253 4.49483 4.00503L5.72355 4.54584C6.0771 4.7013 6.48355 4.67781 6.8187 4.48163C7.1524 4.2877 7.37456 3.94671 7.41745 3.56291L7.56668 2.22165C7.59784 1.94155 7.80324 1.71226 8.07782 1.65108C8.70717 1.51084 9.34933 1.43632 10.0093 1.42871C10.6534 1.43615 11.2948 1.5107 11.9234 1.65116C12.1979 1.71248 12.4031 1.94169 12.4342 2.22165L12.5836 3.56393C12.6512 4.18024 13.1705 4.64704 13.7897 4.64769C13.9561 4.64795 14.1207 4.61323 14.2745 4.54506L15.5034 4.00415C15.759 3.89166 16.0576 3.95299 16.2485 4.15717C17.1366 5.10753 17.798 6.24732 18.183 7.49078C18.266 7.75891 18.1704 8.0503 17.9449 8.21686L16.8556 9.02134C16.5449 9.25008 16.3571 9.61335 16.3571 9.99968C16.3571 10.386 16.5449 10.7493 16.8563 10.9785L17.9465 11.7833C18.1721 11.9498 18.2677 12.2413 18.1847 12.5094C17.7999 13.7527 17.1388 14.8924 16.2513 15.8429C16.0606 16.047 15.7622 16.1085 15.5066 15.9963ZM11.6164 15.8548C11.7844 15.3347 12.1349 14.8778 12.6345 14.5886C13.2644 14.2238 14.0383 14.182 14.7029 14.4734L15.6629 14.8948C16.2793 14.1814 16.7567 13.3582 17.0701 12.4681L16.2211 11.8414L16.2204 11.8409C15.6414 11.4144 15.2857 10.7341 15.2857 9.99968C15.2857 9.26574 15.641 8.58547 16.2195 8.15918L16.2204 8.1585L17.0684 7.53225C16.7548 6.64209 16.2772 5.81893 15.6606 5.1056L14.7087 5.52456L14.707 5.52529C14.4174 5.6534 14.1051 5.71954 13.7885 5.71912C12.6225 5.71762 11.6462 4.83889 11.5187 3.68199L11.5185 3.68075L11.4025 2.63798C10.943 2.55244 10.4769 2.50632 10.0093 2.50022C9.52781 2.50646 9.05866 2.55272 8.59837 2.63815L8.48225 3.68189C8.40178 4.40204 7.98523 5.0423 7.35851 5.40714C6.72813 5.77552 5.96038 5.82041 5.29193 5.52648L4.33767 5.10648C3.72107 5.81975 3.24352 6.64283 2.92998 7.53291L3.77987 8.15956C4.36512 8.59072 4.7101 9.27417 4.7101 10.0006C4.7101 10.7267 4.36531 11.4103 3.78027 11.8413L2.92973 12.4691C3.24288 13.3604 3.72036 14.1847 4.33719 14.8992L5.29816 14.4773C5.96247 14.1868 6.72553 14.2297 7.35337 14.5924C7.98142 14.9551 8.39953 15.5944 8.48132 16.3144L8.48169 16.3176L8.59728 17.3635C9.52328 17.5457 10.4759 17.5457 11.4019 17.3635L11.5177 16.3156C11.535 16.1585 11.5682 16.004 11.6164 15.8548Z" fill="#667085"/>
</svg>
