<svg width="50" height="26" viewBox="0 0 50 26" fill="none" xmlns="http://www.w3.org/2000/svg">
<rect x="1.19995" y="0.5" width="48" height="25" rx="4.5" stroke="#E9EDF5"/>
<path d="M16.3585 18.1392C15.7354 18.1392 15.1753 18.0199 14.6781 17.7812C14.1843 17.5393 13.7899 17.2079 13.4949 16.7869C13.1999 16.366 13.0425 15.8854 13.0226 15.3452H14.514C14.5505 15.7827 14.7444 16.1423 15.0957 16.424C15.4471 16.7057 15.868 16.8466 16.3585 16.8466C16.7496 16.8466 17.096 16.7571 17.3976 16.5781C17.7025 16.3958 17.9411 16.1456 18.1135 15.8274C18.2891 15.5092 18.377 15.1463 18.377 14.7386C18.377 14.3243 18.2875 13.9548 18.1085 13.63C17.9295 13.3052 17.6826 13.05 17.3677 12.8643C17.0562 12.6787 16.6982 12.5843 16.2939 12.581C15.9856 12.581 15.6757 12.634 15.3642 12.7401C15.0526 12.8461 14.8007 12.9853 14.6085 13.1577L13.2015 12.9489L13.7733 7.81818H19.3713V9.13565H15.051L14.7278 11.9844H14.7875C14.9864 11.7921 15.2498 11.6314 15.578 11.5021C15.9094 11.3729 16.264 11.3082 16.6419 11.3082C17.2617 11.3082 17.8135 11.4557 18.2974 11.7507C18.7846 12.0457 19.1675 12.4484 19.4459 12.9588C19.7276 13.4659 19.8668 14.0492 19.8635 14.7088C19.8668 15.3684 19.7176 15.9567 19.416 16.4737C19.1177 16.9908 18.7034 17.3984 18.1731 17.6967C17.6462 17.9917 17.0413 18.1392 16.3585 18.1392Z" fill="#687182"/>
<path d="M33.7 11.5L36.7 14.5L39.7 11.5" stroke="#868FA0" stroke-width="1.5" stroke-linecap="round" stroke-linejoin="round"/>
</svg>
