<svg width="20" height="21" viewBox="0 0 20 21" fill="none" xmlns="http://www.w3.org/2000/svg">
<path d="M6.24999 4.19303C6.71023 4.19303 7.08332 3.81994 7.08332 3.3597C7.08332 2.89946 6.71023 2.52637 6.24999 2.52637H4.99999C3.15904 2.52637 1.66666 4.01875 1.66666 5.8597V15.8597C1.66666 17.7007 3.15904 19.193 4.99999 19.193H6.24999C6.71023 19.193 7.08332 18.8199 7.08332 18.3597C7.08332 17.8995 6.71023 17.5264 6.24999 17.5264H4.99999C4.07952 17.5264 3.33332 16.7802 3.33332 15.8597L3.33332 5.8597C3.33332 4.93923 4.07952 4.19303 4.99999 4.19303H6.24999Z" fill="#464F60"/>
<path d="M18.9226 11.449C19.248 11.1235 19.248 10.5959 18.9226 10.2704L15.5892 6.93711C15.2638 6.61167 14.7362 6.61167 14.4107 6.93711C14.0853 7.26255 14.0853 7.79019 14.4107 8.11562L16.3215 10.0264L6.66666 10.0264C6.20642 10.0264 5.83332 10.3995 5.83332 10.8597C5.83332 11.3199 6.20642 11.693 6.66666 11.693L16.3215 11.693L14.4107 13.6038C14.0853 13.9292 14.0853 14.4569 14.4107 14.7823C14.7362 15.1077 15.2638 15.1077 15.5892 14.7823L18.9226 11.449Z" fill="#464F60"/>
</svg>
