<svg width="40" height="41" viewBox="0 0 40 41" fill="none" xmlns="http://www.w3.org/2000/svg">
<path fill-rule="evenodd" clip-rule="evenodd" d="M20 4.19238C10.795 4.19238 3.33333 11.654 3.33333 20.859C3.33333 30.064 10.795 37.5257 20 37.5257C29.205 37.5257 36.6667 30.064 36.6667 20.859C36.6667 11.654 29.205 4.19238 20 4.19238ZM14.1667 16.6924C14.1667 15.9263 14.3175 15.1678 14.6107 14.4601C14.9038 13.7523 15.3335 13.1093 15.8752 12.5676C16.4169 12.0259 17.0599 11.5962 17.7677 11.3031C18.4754 11.0099 19.234 10.859 20 10.859C20.766 10.859 21.5246 11.0099 22.2323 11.3031C22.94 11.5962 23.5831 12.0259 24.1248 12.5676C24.6665 13.1093 25.0961 13.7523 25.3893 14.4601C25.6824 15.1678 25.8333 15.9263 25.8333 16.6924C25.8333 18.2395 25.2187 19.7232 24.1248 20.8172C23.0308 21.9111 21.5471 22.5257 20 22.5257C18.4529 22.5257 16.9692 21.9111 15.8752 20.8172C14.7812 19.7232 14.1667 18.2395 14.1667 16.6924ZM30.43 29.1657C29.1824 30.7351 27.5963 32.0023 25.7903 32.8727C23.9842 33.7431 22.0049 34.1943 20 34.1924C17.9951 34.1943 16.0158 33.7431 14.2097 32.8727C12.4037 32.0023 10.8176 30.7351 9.56999 29.1657C12.2717 27.2274 15.9583 25.859 20 25.859C24.0417 25.859 27.7283 27.2274 30.43 29.1657Z" fill="#949494"/>
</svg>
