<svg width="18" height="15" viewBox="0 0 18 15" fill="none" xmlns="http://www.w3.org/2000/svg">
<path d="M13.5647 6.50922C13.571 6.50919 13.5772 6.50917 13.5834 6.50917C15.6545 6.50917 17.3334 8.19118 17.3334 10.2661C17.3334 12.1998 15.8751 13.7924 14.0001 14M13.5647 6.50922C13.5771 6.37172 13.5834 6.23247 13.5834 6.09174C13.5834 3.55579 11.5314 1.5 9.00008 1.5C6.60278 1.5 4.63535 3.34389 4.43377 5.69326M13.5647 6.50922C13.4795 7.45632 13.1073 8.3205 12.5358 9.01376M4.43377 5.69326C2.32007 5.89477 0.666748 7.67827 0.666748 9.84862C0.666748 11.8681 2.09821 13.5527 4.00008 13.9394M4.43377 5.69326C4.5653 5.68072 4.69861 5.67431 4.83341 5.67431C5.7716 5.67431 6.63737 5.98495 7.33382 6.50917" stroke="#464F60" stroke-width="1.3" stroke-linecap="round" stroke-linejoin="round"/>
</svg>
